<svg xmlns="http://www.w3.org/2000/svg" viewBox="0 0 1900 1080"><defs><style>.cls-1{fill:#222;}.cls-10,.cls-11,.cls-2,.cls-3,.cls-4,.cls-7,.cls-8{fill:none;}.cls-10,.cls-11,.cls-2,.cls-3,.cls-4,.cls-5,.cls-6,.cls-7,.cls-8,.cls-9{stroke:#2f2f2f;stroke-miterlimit:10;}.cls-2,.cls-6{stroke-width:5px;}.cls-3{stroke-width:4.59px;}.cls-4{stroke-width:4.77px;}.cls-5{fill:#2f2f2f;}.cls-6{fill:#3788c0;}.cls-7{stroke-width:4.86px;}.cls-8{stroke-width:4.88px;}.cls-9{fill:#161616;}.cls-10{stroke-width:5.26px;}.cls-11{stroke-width:6px;}</style></defs><title>Artboard 1</title><g id="background"><rect class="cls-1" y="-0.62" width="1900" height="1081.24"/></g><g id="pattern"><polyline class="cls-2" points="386 669 386 596 847 596 924 669 924 762"/><polyline class="cls-2" points="450 596 386 535 336 535"/><line class="cls-2" x1="526" y1="596" x2="485" y2="553"/><polyline class="cls-2" points="526 688 560 653 560 519 491 450 126 450"/><line class="cls-2" x1="491" y1="450" x2="491" y2="402"/><polyline class="cls-2" points="586 828 586 754 613 726 646 726 680 726 706 755 706 828"/><polyline class="cls-2" points="615 797 615 757 646 726 676 755 676 797"/><polyline class="cls-2" points="336 450 257 535 0 535"/><line class="cls-2" x1="207" y1="535" x2="283" y2="614"/><line class="cls-3" x1="159" y1="535" x2="96.57" y2="607.53"/><line class="cls-3" y1="607.53" x2="147.67" y2="607.53"/><polygon class="cls-2" points="445 803 336 803 336 667 445 667 445 735 445 803"/><line class="cls-3" x1="445" y1="735" x2="505.5" y2="797"/><line class="cls-3" x1="332" y1="735" x2="168" y2="735"/><line class="cls-4" x1="263" y1="789" x2="263" y2="735"/><polyline class="cls-2" points="1115 450 1105 450 1105 509 731 509 646 596 646 770"/><line class="cls-2" x1="578" y1="426" x2="696.91" y2="543.89"/><line class="cls-2" x1="706" y1="436" x2="646" y2="493.42"/><polyline class="cls-2" points="899 509 899 554 915 569"/><circle class="cls-2" cx="922.15" cy="577" r="8"/><polyline class="cls-2" points="939.42 508 939.42 553 955.42 568"/><circle class="cls-2" cx="962.58" cy="576" r="8"/><line class="cls-2" x1="775" y1="596" x2="775" y2="653"/><circle class="cls-2" cx="586" cy="837.16" r="8"/><circle class="cls-2" cx="615" cy="805" r="8"/><circle class="cls-2" cx="646" cy="778" r="8"/><circle class="cls-2" cx="676" cy="805" r="8"/><circle class="cls-2" cx="706" cy="837.16" r="8"/><circle class="cls-2" cx="155.67" cy="607.53" r="8"/><circle class="cls-2" cx="289.08" cy="622" r="8"/><circle class="cls-2" cx="328" cy="535" r="8"/><circle class="cls-2" cx="480.49" cy="547" r="8"/><circle class="cls-2" cx="713" cy="428.98" r="8"/><circle class="cls-2" cx="573.76" cy="419" r="8"/><circle class="cls-2" cx="513.5" cy="803" r="8"/><circle class="cls-2" cx="263" cy="795" r="8"/><polygon class="cls-5" points="411.49 688 369.51 740.22 390.39 740.22 369.51 782 411.28 729.78 390.39 729.78 411.49 688"/><circle class="cls-2" cx="774.96" cy="677.22" r="24.7"/><rect class="cls-2" x="1115" y="432.67" width="47" height="34.67"/><circle class="cls-2" cx="826.6" cy="761.5" r="8"/><polyline class="cls-2" points="787.18 509 924 374.76 1027 374.76"/><circle class="cls-2" cx="1035" cy="374.76" r="8"/><polyline class="cls-2" points="922.15 449.06 975.54 449.06 1094.45 566.95 1151.08 568"/><circle class="cls-2" cx="915" cy="450" r="8"/><polyline class="cls-2" points="834.6 761.5 1200.58 761.5 1253.08 701.93 1253.08 596 1253.08 596"/><polyline class="cls-2" points="1065.58 708.77 1017.59 761.23 1017.59 858.58 955.42 917.07 581.76 917.07 539.11 917.07 362 917.07 357.62 917.07 297.08 917.07"/><line class="cls-2" x1="360" y1="917.07" x2="420" y2="857.5"/><polyline class="cls-2" points="464.12 917.07 464.12 965.07 464.12 1013.07"/><polyline class="cls-2" points="348 1044 426.62 965.07 464.12 965.07"/><polyline class="cls-2" points="1065.58 624.5 1106.08 624.5 1145.08 668.08 1145.08 858.57 1200.58 917.07 1271.07 917.07 1900 917.07"/><polyline class="cls-2" points="1271.07 917.07 1269.57 966.57 1151.08 1079"/><circle class="cls-2" cx="1159.08" cy="568" r="8"/><line class="cls-2" x1="1145.08" y1="668.08" x2="1174.33" y2="638.67"/><circle class="cls-2" cx="1178.02" cy="632.5" r="8"/><polyline class="cls-2" points="416.83 235 873 235 924 286 924 374.76"/><line class="cls-2" x1="1085" y1="286" x2="924" y2="286"/><polyline class="cls-2" points="705 235 655 286 655 356"/><polyline class="cls-2" points="665 235 615 286 615 326"/><circle class="cls-2" cx="655" cy="364" r="8"/><circle class="cls-2" cx="615" cy="334" r="8"/><polyline class="cls-2" points="624 236.38 574 287.38 574 357.38"/><polyline class="cls-2" points="584 236.38 534 287.38 534 327.38"/><circle class="cls-2" cx="574" cy="365.38" r="8"/><circle class="cls-2" cx="534" cy="335.38" r="8"/><rect class="cls-2" x="1032.62" y="608" width="34.67" height="34.67"/><circle class="cls-2" cx="395.3" cy="236.38" r="24.7"/><line class="cls-6" x1="1080" y1="762" x2="1080" y2="909"/><polyline class="cls-2" points="989.17 885.31 939.42 835.5 834.6 835.5"/><polyline class="cls-2" points="698 917.07 745.51 965.07 834.6 1055.07"/><line class="cls-6" x1="607" y1="965.07" x2="745.51" y2="965.07"/><line class="cls-6" x1="793.02" y1="1013.07" x2="689.1" y2="1013.07"/><line class="cls-2" x1="869.6" y1="982.4" x2="804.28" y2="917.07"/><line class="cls-2" x1="1018.43" y1="1080.24" x2="920.58" y2="982.4"/><line class="cls-2" x1="869.6" y1="982.4" x2="1013" y2="982.4"/><polyline class="cls-2" points="505.5 235 505.5 155 560 98 1215.58 97"/><polygon class="cls-2" points="1296 105 1215.58 105 1215.58 87 1296 87 1296 96 1296 105"/><polyline class="cls-2" points="1296 96 1507 96 1566.5 154.84 1745 154.84"/><line class="cls-7" x1="1205.61" y1="1027.26" x2="1137.34" y2="958.99"/><line class="cls-2" x1="1155.33" y1="1079" x2="1115" y2="1038.67"/><line class="cls-2" x1="1179.27" y1="1052.25" x2="1297.67" y2="1052.25"/><polyline class="cls-2" points="857.08 440.42 764.16 347.5 764.16 313.33 798.33 313.33 834.6 313.33"/><polyline class="cls-2" points="798.33 313.33 798.33 286 716.33 286"/><circle class="cls-2" cx="706" cy="286" r="8"/><circle class="cls-2" cx="841.75" cy="313.33" r="8"/><circle class="cls-2" cx="1072" cy="703.53" r="8"/><circle class="cls-2" cx="1080" cy="917.07" r="8"/><circle class="cls-2" cx="1133.79" cy="952.46" r="8"/><circle class="cls-2" cx="1021" cy="982.4" r="8"/><circle class="cls-2" cx="1110.39" cy="1033.97" r="8"/><polyline class="cls-2" points="670.41 97.83 670.41 166 599 166"/><rect class="cls-2" x="553" y="152.5" width="46" height="27"/><polyline class="cls-2" points="115.5 265 115.5 313.33 252.79 450.46"/><polyline class="cls-2" points="107.67 368.67 138.51 335.82 332 335.82 438 335.82"/><circle class="cls-2" cx="100.67" cy="375.67" r="8"/><polyline class="cls-2" points="1266.5 598 1266.5 626.09 1266.5 703.25 1304.09 740.91 1389 826 1485 826"/><line class="cls-2" x1="1238.33" y1="806.67" x2="1304.09" y2="740.91"/><circle class="cls-2" cx="1230.33" cy="812.92" r="8"/><polyline class="cls-2" points="1348.71 785.63 1299 835.5 1299 860.41"/><circle class="cls-2" cx="1299" cy="868.41" r="8"/><polygon class="cls-2" points="168 265 63 265 63 131.92 168 131.92 168 195.33 168 265"/><polyline class="cls-2" points="168 195.33 268.33 195.33 303.51 159.11 335.67 126 424.33 126"/><polyline class="cls-2" points="303.51 159.11 223.67 80.67 223.67 29.17 223.67 -1"/><circle class="cls-2" cx="841" cy="1058.83" r="8"/><circle class="cls-2" cx="681.33" cy="1013.07" r="8"/><circle class="cls-2" cx="599" cy="965.07" r="8"/><path class="cls-5" d="M1273,545.21,1267.06,525a6.37,6.37,0,1,0-7.1,0l-5.89,20.25Z"/><path class="cls-5" d="M1320.3,598H1206.71a12,12,0,0,1-11.95-11.95V472.47a12,12,0,0,1,11.95-11.95h113.58a12,12,0,0,1,11.95,11.95V586.05A12,12,0,0,1,1320.3,598ZM1206.71,467a5.43,5.43,0,0,0-5.43,5.43V586.05a5.44,5.44,0,0,0,5.43,5.43h113.58a5.44,5.44,0,0,0,5.43-5.43V472.47a5.44,5.44,0,0,0-5.43-5.43Z"/><path class="cls-5" d="M1318.33,467h-17.38a3.26,3.26,0,0,1-3.26-3.26v-8.52a34.21,34.21,0,1,0-68.43,0v8.52A3.26,3.26,0,0,1,1226,467h-17.38a3.26,3.26,0,0,1-3.26-3.26v-8.52a58.11,58.11,0,1,1,116.22,0v8.52A3.26,3.26,0,0,1,1318.33,467Zm-14.12-6.52h10.86v-5.27a51.59,51.59,0,0,0-103.19,0v5.27h10.86v-5.27a40.73,40.73,0,1,1,81.46,0Z"/><line class="cls-2" x1="272.83" y1="273" x2="332" y2="335.82"/><circle class="cls-2" cx="266.37" cy="266.08" r="8"/><circle class="cls-2" cx="446" cy="334" r="8"/><circle class="cls-2" cx="425.18" cy="850.94" r="8"/><circle class="cls-2" cx="343.6" cy="1050.68" r="8"/><polyline class="cls-2" points="764 677.22 771.5 687 787 666.5"/><line class="cls-2" x1="383.3" y1="236.38" x2="407.3" y2="236.38"/><line class="cls-2" x1="395.3" y1="248.38" x2="395.3" y2="224.38"/><circle class="cls-2" cx="1109.7" cy="286" r="24.7"/><line class="cls-2" x1="1101.22" y1="277.51" x2="1118.19" y2="294.49"/><line class="cls-2" x1="1101.22" y1="294.49" x2="1118.19" y2="277.51"/><line class="cls-8" x1="1321.59" y1="687.33" x2="1321.59" y2="758.45"/><circle class="cls-2" cx="1321.59" cy="678.75" r="8"/><rect class="cls-2" x="433.33" y="1013.07" width="62.67" height="37.61"/><path class="cls-9" d="M446.83,1026a2.17,2.17,0,0,1-2.17,2.17h0a2.17,2.17,0,0,1-2.17-2.17h0a2.17,2.17,0,0,1,2.17-2.17h0a2.17,2.17,0,0,1,2.17,2.17Z"/><path class="cls-9" d="M456.67,1026a2.17,2.17,0,0,1-2.17,2.17h0a2.17,2.17,0,0,1-2.17-2.17h0a2.17,2.17,0,0,1,2.17-2.17h0a2.17,2.17,0,0,1,2.17,2.17Z"/><path class="cls-9" d="M466.58,1026a2.17,2.17,0,0,1-2.17,2.17h0a2.17,2.17,0,0,1-2.17-2.17h0a2.17,2.17,0,0,1,2.17-2.17h0a2.17,2.17,0,0,1,2.17,2.17Z"/><path class="cls-9" d="M476.58,1026a2.17,2.17,0,0,1-2.17,2.17h0a2.17,2.17,0,0,1-2.17-2.17h0a2.17,2.17,0,0,1,2.17-2.17h0a2.17,2.17,0,0,1,2.17,2.17Z"/><path class="cls-9" d="M486.33,1026a2.17,2.17,0,0,1-2.17,2.17h0A2.17,2.17,0,0,1,482,1026h0a2.17,2.17,0,0,1,2.17-2.17h0a2.17,2.17,0,0,1,2.17,2.17Z"/><path class="cls-9" d="M446.83,1038.67a2.17,2.17,0,0,1-2.17,2.17h0a2.17,2.17,0,0,1-2.17-2.17h0a2.17,2.17,0,0,1,2.17-2.17h0a2.17,2.17,0,0,1,2.17,2.17Z"/><path class="cls-9" d="M456.67,1038.67a2.17,2.17,0,0,1-2.17,2.17h0a2.17,2.17,0,0,1-2.17-2.17h0a2.17,2.17,0,0,1,2.17-2.17h0a2.17,2.17,0,0,1,2.17,2.17Z"/><path class="cls-9" d="M466.58,1038.67a2.17,2.17,0,0,1-2.17,2.17h0a2.17,2.17,0,0,1-2.17-2.17h0a2.17,2.17,0,0,1,2.17-2.17h0a2.17,2.17,0,0,1,2.17,2.17Z"/><path class="cls-9" d="M476.58,1038.67a2.17,2.17,0,0,1-2.17,2.17h0a2.17,2.17,0,0,1-2.17-2.17h0a2.17,2.17,0,0,1,2.17-2.17h0a2.17,2.17,0,0,1,2.17,2.17Z"/><path class="cls-9" d="M486.33,1038.67a2.17,2.17,0,0,1-2.17,2.17h0a2.17,2.17,0,0,1-2.17-2.17h0a2.17,2.17,0,0,1,2.17-2.17h0a2.17,2.17,0,0,1,2.17,2.17Z"/><circle class="cls-2" cx="1307" cy="1052.25" r="8"/><polyline class="cls-2" points="745.5 97.83 796.5 147.83 866.5 147.83"/><circle class="cls-2" cx="874.5" cy="147.83" r="8"/><line class="cls-2" x1="912.33" y1="97.83" x2="1007.67" y2="195.33"/><polyline class="cls-2" points="940.77 126.91 940.77 186.67 960 205.33"/><circle class="cls-2" cx="966.25" cy="210.14" r="8"/><circle class="cls-2" cx="1012.51" cy="201.37" r="8"/><polyline class="cls-2" points="1004.5 96 1170.02 261.3 1263.48 261.3"/><path class="cls-5" d="M1301.92,227.74a20.23,20.23,0,0,0-18.73,15.68,20.11,20.11,0,0,0-18.07,32.29l-2.42,4.19a1.57,1.57,0,0,0-.16,1.18l.74,2.75-2.75.74a1.56,1.56,0,0,0-1.11,1.9h0l.74,2.75-2.75.74a1.56,1.56,0,0,0-1.1,1.91h0l.74,2.73-2.68.67a1.56,1.56,0,0,0-1.13,1.89h0l.72,2.86-2.78.74a1.56,1.56,0,0,0-.94.72l-1.56,2.7a1.55,1.55,0,0,0-.08,1.39l3.06,7.16a1.56,1.56,0,0,0,1.62.94l7.74-.93a1.56,1.56,0,0,0,1.17-.77l16.45-28.49a20.4,20.4,0,0,0,11.29-1.74,20.63,20.63,0,0,0,8.3,6.45V293a1.55,1.55,0,0,0,.45,1.1l2,2-2,2a1.56,1.56,0,0,0,0,2.2l2,2-2,2a1.56,1.56,0,0,0,0,2.2l2,2-2,1.92a1.56,1.56,0,0,0,0,2.21l2.05,2.11-2,2a1.55,1.55,0,0,0-.45,1.1v3.12a1.56,1.56,0,0,0,.63,1.25l6.23,4.67a1.56,1.56,0,0,0,1.87,0l6.23-4.67a1.55,1.55,0,0,0,.62-1.25V288.19a20.05,20.05,0,0,0,7.47-31.8,20.24,20.24,0,0,0-19.35-28.64Zm.14,3.12A17.06,17.06,0,0,1,1318.85,254a20.14,20.14,0,0,0-21.55-2.62,19.8,19.8,0,0,0-11-7.41A17.08,17.08,0,0,1,1302.06,230.86Zm-20.47,15.55a17,17,0,0,1,13,6.54,20.25,20.25,0,0,0-8.82,16.71,19.64,19.64,0,0,0,2.44,9.45,17.15,17.15,0,0,1-10.19,1.3,1.56,1.56,0,0,0-1.63.75l-16.5,28.6-5.8.69-2.3-5.37.85-1.47,3.64-1a1.56,1.56,0,0,0,1.11-1.89l-.71-2.83,2.7-.68a1.56,1.56,0,0,0,1.13-1.89v0l-.74-2.76,2.75-.74a1.56,1.56,0,0,0,1.1-1.91l-.73-2.75,2.75-.74a1.56,1.56,0,0,0,1.1-1.9l-1-3.63,2.55-4.42a1.56,1.56,0,0,0-.17-1.79,17.15,17.15,0,0,1,13.49-28.28Zm24.42,6.11a17.06,17.06,0,0,1,11.44,4.39,17.06,17.06,0,0,1-5.7,5.66,6.26,6.26,0,1,0,.39,3.41,20.19,20.19,0,0,0,7.51-6.68,17.12,17.12,0,0,1-7.92,26.51,1.56,1.56,0,0,0-1,1.47v33L1306,323.8l-4.67-3.51V318.6l2.66-2.66a1.56,1.56,0,0,0,0-2.18l-2-2.09,2-1.94a1.56,1.56,0,0,0,0-2.2l0,0-2-2,2-2a1.56,1.56,0,0,0,0-2.2l-2-2,2-2a1.56,1.56,0,0,0,0-2.2l-2.66-2.66v-5.1a1.57,1.57,0,0,0-1-1.47,17.14,17.14,0,0,1,5.71-33.3Zm0,9.35a3.12,3.12,0,1,1-3.12,3.12A3.1,3.1,0,0,1,1306,261.86Z"/><polyline class="cls-2" points="122.83 608.25 72.83 659.25 72.83 729.25"/><polyline class="cls-2" points="82.83 608.25 32.83 659.25 32.83 699.25"/><circle class="cls-2" cx="72.83" cy="737.25" r="8"/><circle class="cls-2" cx="32.83" cy="707.25" r="8"/><line class="cls-2" x1="159" y1="917.07" x2="1" y2="917.07"/><circle class="cls-2" cx="167" cy="917.07" r="8"/><line class="cls-2" x1="40" y1="917.07" x2="104" y2="851.5"/><polyline class="cls-2" points="161.5 851.5 43 851.5 0 806"/><circle class="cls-2" cx="169.5" cy="851.5" r="8"/><polyline class="cls-2" points="228.14 984.73 81.02 984.73 14 917.71"/><path class="cls-5" d="M108.54,158.72l.09-.06.47-.25c.63-.32,1.27-.63,1.92-.9a26.4,26.4,0,0,1,4-1.33l1-.23.26-.05a2.83,2.83,0,0,1,.36-.06.59.59,0,0,1,.38.14l.07.07a.57.57,0,0,1,.1.18l1.57,4.46.51-.05.59,0c.66,0,1.32-.05,2,0s1.45.08,2.17.17h.11l1.66-4.42,0-.09.06-.09a.6.6,0,0,1,.36-.2.61.61,0,0,1,.21,0l.52.11c.69.16,1.38.33,2.05.54a26.55,26.55,0,0,1,3.94,1.57l.94.49.23.13a2.64,2.64,0,0,1,.31.19.6.6,0,0,1,.21.35.75.75,0,0,1,0,.1.57.57,0,0,1,0,.2L133,164.06l.42.29.48.34c.58.43,1.15.89,1.68,1.38s1,.91,1.4,1.39l.08.08,4.11-2.32.1,0,.1,0a.59.59,0,0,1,.4.08.61.61,0,0,1,.15.14l.33.42c.43.56.84,1.14,1.22,1.74a26.36,26.36,0,0,1,2,3.73q.21.49.41,1l.1.25a2.67,2.67,0,0,1,.12.35.59.59,0,0,1-.07.4l-.06.08a.59.59,0,0,1-.16.13l-4.12,2.32.14.49.15.57c.15.64.28,1.29.38,1.94s.17,1.44.21,2.17v.11l4.64.87.1,0a.59.59,0,0,1,.37.46.74.74,0,0,1,0,.1c0,.26,0,.26,0,.53,0,.71-.09,1.41-.18,2.12a26.57,26.57,0,0,1-.86,4.15q-.15.51-.32,1l-.09.25a2.79,2.79,0,0,1-.13.34.59.59,0,0,1-.31.26l-.1,0a.59.59,0,0,1-.21,0l-4.64-.87-.21.46-.26.54c-.3.59-.61,1.17-1,1.73s-.79,1.21-1.23,1.79l-.07.09,3,3.65.06.09,0,.1a.6.6,0,0,1,0,.41.59.59,0,0,1-.11.18l-.35.39c-.48.52-1,1-1.5,1.51a26.51,26.51,0,0,1-3.33,2.63l-.9.57-.23.14a2.57,2.57,0,0,1-.32.18.59.59,0,0,1-.41,0l-.1,0a.59.59,0,0,1-.16-.13l-3-3.65-.46.22-.54.25c-.6.26-1.22.5-1.84.71s-1.39.42-2.1.58l-.11,0,0,4.72v.1s0,.07,0,.1a.59.59,0,0,1-.46.37l-.52.07c-.7.09-1.41.16-2.12.19a26.39,26.39,0,0,1-4.24-.13l-1.05-.14-.26,0a2.71,2.71,0,0,1-.36-.07.6.6,0,0,1-.31-.26l0-.09a.55.55,0,0,1,0-.21l0-4.72-.49-.12-.57-.16c-.63-.19-1.26-.4-1.87-.64s-1.33-.57-2-.9l-.1-.05-3.07,3.59-.07.07-.09.06a.59.59,0,0,1-.4.06.58.58,0,0,1-.19-.08l-.45-.28c-.6-.38-1.18-.79-1.74-1.21a26.53,26.53,0,0,1-3.17-2.82q-.37-.39-.72-.78l-.18-.2a2.89,2.89,0,0,1-.23-.28.6.6,0,0,1-.07-.4l0-.1a.62.62,0,0,1,.1-.18l3.07-3.59-.3-.41-.34-.49c-.4-.61-.77-1.23-1.11-1.87s-.59-1.18-.84-1.79l0-.1-4.66.77h-.1a.6.6,0,0,1-.51-.31l0-.1-.16-.5c-.21-.68-.4-1.36-.56-2.05a26.61,26.61,0,0,1-.61-4.2c0-.35,0-.71,0-1.06,0-.09,0-.18,0-.27a2.67,2.67,0,0,1,0-.37.59.59,0,0,1,.2-.35l.09-.06a.61.61,0,0,1,.2-.07l4.66-.77c0-.17,0-.34,0-.51s0-.39.06-.59c.08-.72.2-1.44.35-2.14s.31-1.28.51-1.91l0-.11L96.92,173l-.09-.06a.58.58,0,0,1-.19-.56.7.7,0,0,1,0-.1l.2-.49c.27-.65.57-1.3.89-1.93a26.4,26.4,0,0,1,2.23-3.61c.21-.29.43-.57.65-.84l.17-.21a3,3,0,0,1,.24-.28.59.59,0,0,1,.38-.14h.1a.61.61,0,0,1,.19.07l4.07,2.4.35-.37.42-.41c.53-.5,1.07-1,1.65-1.42s1.06-.78,1.62-1.14l.1-.06-1.57-4.46,0-.1s0-.07,0-.1a.61.61,0,0,1,.09-.3l.06-.08ZM140.68,175l.08-.06,4.09-2.31c-.21-.55-.45-1.1-.71-1.64a25.32,25.32,0,0,0-1.88-3.3c-.28-.42-.58-.83-.89-1.24h0l-4.09,2.31-.09,0a.59.59,0,0,1-.57-.1l-.07-.07-.38-.42a20.19,20.19,0,0,0-4.16-3.46l-.08-.06-.07-.07a.59.59,0,0,1-.13-.37.62.62,0,0,1,0-.2l1.65-4.39c-.52-.29-1.06-.55-1.6-.8a25.32,25.32,0,0,0-3.56-1.32c-.49-.14-1-.26-1.48-.38h0l-1.65,4.39,0,.09a.62.62,0,0,1-.13.15.6.6,0,0,1-.37.14h-.1l-.56-.08a20.16,20.16,0,0,0-5.41,0h-.2a.59.59,0,0,1-.34-.21.58.58,0,0,1-.1-.18l-1.56-4.43c-.58.11-1.16.26-1.74.41a25.36,25.36,0,0,0-3.58,1.28c-.46.21-.92.43-1.37.66h0l1.56,4.42,0,.1a.6.6,0,0,1,0,.2.58.58,0,0,1-.19.34l-.08.06-.48.3a20.16,20.16,0,0,0-4.13,3.49l-.07.07-.09.06a.59.59,0,0,1-.39.06.57.57,0,0,1-.19-.07l-4-2.39c-.37.46-.73.94-1.06,1.43a25.28,25.28,0,0,0-1.92,3.28c-.22.46-.43.92-.63,1.39h0l4,2.39.08.06a.59.59,0,0,1,.13.15.6.6,0,0,1,.07.39l0,.1-.18.54a20.18,20.18,0,0,0-.92,5.33v.1a.59.59,0,0,1-.08.18.59.59,0,0,1-.31.25l-.1,0-4.63.77c0,.59,0,1.19.11,1.78a25.24,25.24,0,0,0,.64,3.75c.12.49.26,1,.41,1.47h0l4.63-.77h.2a.59.59,0,0,1,.44.37l.21.52a20.79,20.79,0,0,0,1.25,2.51,21.09,21.09,0,0,0,1.47,2.16l.05.08,0,.09a.6.6,0,0,1,0,.39.57.57,0,0,1-.1.17l-3.05,3.57c.39.45.8.88,1.23,1.3a25.08,25.08,0,0,0,2.9,2.46c.41.3.83.58,1.26.86h0l3.05-3.56.07-.07.08-.06a.59.59,0,0,1,.39-.07.56.56,0,0,1,.19.07l.5.27a20.14,20.14,0,0,0,5.09,1.83l.1,0a.63.63,0,0,1,.17.11.59.59,0,0,1,.19.35s0,.07,0,.1l0,4.69c.59.09,1.18.16,1.77.21a25.06,25.06,0,0,0,3.8,0c.51,0,1-.09,1.52-.15h0l0-4.69v-.1l0-.1a.59.59,0,0,1,.25-.3.56.56,0,0,1,.19-.07l.55-.11a20.27,20.27,0,0,0,5.07-1.87l.09,0,.1,0a.59.59,0,0,1,.39.08.57.57,0,0,1,.15.13l3,3.63c.51-.31,1-.64,1.49-1a25.14,25.14,0,0,0,2.92-2.43c.37-.35.72-.72,1.06-1.09h0l-3-3.63-.06-.08a.56.56,0,0,1-.07-.19.6.6,0,0,1,.06-.39l.06-.08.35-.44a20.19,20.19,0,0,0,2.68-4.69l0-.09a.55.55,0,0,1,.13-.15.6.6,0,0,1,.37-.13h.1l4.61.86c.19-.56.36-1.13.51-1.71a25.23,25.23,0,0,0,.68-3.74c.05-.51.09-1,.11-1.52h0l-4.61-.86-.1,0-.09,0a.59.59,0,0,1-.26-.3.62.62,0,0,1,0-.2c0-.19,0-.38,0-.56a20.79,20.79,0,0,0-.32-2.78,21.39,21.39,0,0,0-.64-2.54l0-.1a1,1,0,0,1,0-.1.58.58,0,0,1,.08-.29l.06-.08Zm-29.56.8c.2-.33.41-.65.64-1a11.92,11.92,0,0,1,5.24-4,11.78,11.78,0,0,1,3.66-.8,11.94,11.94,0,0,1,3.72.39,11.82,11.82,0,0,1,6.29,4.17,11.94,11.94,0,0,1,2,3.91,11.83,11.83,0,0,1-4,12.63,11.94,11.94,0,0,1-3.74,2,11.79,11.79,0,0,1-3.57.57,12,12,0,0,1-3.56-.53,11.73,11.73,0,0,1-3.16-1.52,12,12,0,0,1-4.62-6.17,11.81,11.81,0,0,1-.53-4.61,12,12,0,0,1,.78-3.37,12.42,12.42,0,0,1,.69-1.46Zm.88.83a10.9,10.9,0,0,0-.62,1.31,10.68,10.68,0,0,0,3.94,12.74,10.56,10.56,0,0,0,2.84,1.37,10.77,10.77,0,0,0,3.21.48,10.55,10.55,0,0,0,3.21-.52,10.66,10.66,0,0,0,7.33-9,10.64,10.64,0,0,0-.38-4.18,10.68,10.68,0,0,0-18.84-3.28c-.21.28-.4.57-.57.87Z"/><path class="cls-5" d="M106.08,206a.69.69,0,0,1,.22-.12.56.56,0,0,1,.16,0H107a18.38,18.38,0,0,1,5.24.79l.08,0a.58.58,0,0,1,.34.45.58.58,0,0,1,0,.17l-.41,3.06.44.18.5.22a15.84,15.84,0,0,1,1.91,1.07l.11.08.06,0,2.28-2.08a.64.64,0,0,1,.14-.09.59.59,0,0,1,.48,0,.6.6,0,0,1,.14.08l.42.35a18.24,18.24,0,0,1,3.51,4l0,.07a.6.6,0,0,1,0,.16.59.59,0,0,1-.08.4.58.58,0,0,1-.1.13l-2.28,2.07.22.42.24.49a15.79,15.79,0,0,1,.77,2l0,.13,0,.06,3.08-.12a.57.57,0,0,1,.17,0,.59.59,0,0,1,.38.3.56.56,0,0,1,.05.16c0,.18.07.36.1.54a18.32,18.32,0,0,1,.13,5.3l0,.08a.62.62,0,0,1-.06.15.6.6,0,0,1-.32.26.61.61,0,0,1-.16,0l-3.08.12c0,.16-.06.31-.1.47s-.09.36-.13.53a15.71,15.71,0,0,1-.73,2.07l-.05.13,0,.06,2.44,1.89a.58.58,0,0,1,.11.12.59.59,0,0,1,.1.47.57.57,0,0,1-.06.16l-.27.48a19.11,19.11,0,0,1-1.45,2.12,18.9,18.9,0,0,1-1.86,2l-.06.05a.59.59,0,0,1-.7,0l-2.44-1.89-.38.29-.44.32a15.69,15.69,0,0,1-1.88,1.12l-.12.06-.06,0,.66,3a.58.58,0,0,1,0,.17.6.6,0,0,1-.23.43.61.61,0,0,1-.14.08l-.51.19a18.23,18.23,0,0,1-5.2,1.05h-.08a.56.56,0,0,1-.16,0,.59.59,0,0,1-.31-.27.58.58,0,0,1-.06-.16l-.66-3-.48,0-.55,0a15.77,15.77,0,0,1-2.16-.35l-.13,0-.06,0-1.43,2.73a.6.6,0,0,1-.1.13.59.59,0,0,1-.45.18.57.57,0,0,1-.16,0l-.52-.18A18.3,18.3,0,0,1,96,238.72l-.06-.05a.56.56,0,0,1-.1-.13.59.59,0,0,1-.06-.4.57.57,0,0,1,.06-.16l1.43-2.73-.36-.32-.39-.38A15.67,15.67,0,0,1,95,232.88l-.08-.11,0-.05-2.85,1.17a.6.6,0,0,1-.16,0,.59.59,0,0,1-.57-.28l-.28-.47a18.3,18.3,0,0,1-1.94-4.94v-.08a.61.61,0,0,1,0-.17.59.59,0,0,1,.21-.35.55.55,0,0,1,.14-.08l2.85-1.17c0-.16,0-.31-.07-.47s0-.36-.06-.55a15.91,15.91,0,0,1,0-2.19V223L89.25,222a.58.58,0,0,1-.15-.07.59.59,0,0,1-.26-.41.64.64,0,0,1,0-.17l.09-.54a18.25,18.25,0,0,1,1.69-5l0-.07a.55.55,0,0,1,.11-.12.58.58,0,0,1,.55-.1l2.94.94.25-.4.31-.45a15.47,15.47,0,0,1,1.39-1.69l.09-.1,0,0-1.65-2.61a.56.56,0,0,1-.07-.15.59.59,0,0,1,.07-.48.56.56,0,0,1,.11-.12l.42-.36a18.27,18.27,0,0,1,4.52-2.76l.08,0a.58.58,0,0,1,.16,0,.59.59,0,0,1,.38.15.6.6,0,0,1,.11.13l1.65,2.61.46-.15.53-.15a15.73,15.73,0,0,1,2.15-.41h.2l.41-3.06a.59.59,0,0,1,0-.16A.65.65,0,0,1,106,206Zm-3.53,31.35a.56.56,0,0,1,.14-.11.6.6,0,0,1,.35-.06l.09,0,.49.13a13.57,13.57,0,0,0,3.5.41h.09a.59.59,0,0,1,.43.29.62.62,0,0,1,.06.17l.65,3a17.16,17.16,0,0,0,4.37-.95h0l-.65-3v-.09a.59.59,0,0,1,0-.18.58.58,0,0,1,.18-.3.57.57,0,0,1,.15-.1l.46-.21a14.27,14.27,0,0,0,1.53-.87,14.1,14.1,0,0,0,1.41-1.07l.07-.05a.62.62,0,0,1,.16-.07.59.59,0,0,1,.35,0,.56.56,0,0,1,.16.09l2.41,1.86a17.2,17.2,0,0,0,2.74-3.53h0l-2.41-1.87-.07-.06a.54.54,0,0,1-.1-.15.59.59,0,0,1,0-.52l.22-.46A14,14,0,0,0,120,228a14.35,14.35,0,0,0,.39-1.72l0-.09a.58.58,0,0,1,.08-.16.59.59,0,0,1,.28-.21.56.56,0,0,1,.17,0l3-.12a17.18,17.18,0,0,0-.18-4.46v0l-3,.12h-.09a.58.58,0,0,1-.17,0,.59.59,0,0,1-.26-.23.58.58,0,0,1-.07-.16c0-.16-.08-.33-.13-.49a14,14,0,0,0-.59-1.66,13.86,13.86,0,0,0-.81-1.58l0-.08a.62.62,0,0,1,0-.17.59.59,0,0,1,.08-.34.6.6,0,0,1,.11-.14l2.26-2.05a17.23,17.23,0,0,0-3-3.31h0l-2.26,2.05-.07.06a.6.6,0,0,1-.16.07.59.59,0,0,1-.51-.09l-.42-.29a14,14,0,0,0-1.52-.89,14.17,14.17,0,0,0-1.63-.69l-.08,0a.59.59,0,0,1-.14-.11.58.58,0,0,1-.16-.31.6.6,0,0,1,0-.18l.41-3A17.15,17.15,0,0,0,107,207h0l-.41,3,0,.09a.58.58,0,0,1-.08.16.59.59,0,0,1-.45.26l-.51,0a13.88,13.88,0,0,0-1.74.3,14.13,14.13,0,0,0-1.69.52l-.09,0a.59.59,0,0,1-.18,0,.6.6,0,0,1-.32-.14.58.58,0,0,1-.12-.13l-1.63-2.58A17.17,17.17,0,0,0,96,210.94h0l1.63,2.58,0,.08a.56.56,0,0,1,0,.17.6.6,0,0,1-.07.35.59.59,0,0,1-.11.14l-.36.36A13.87,13.87,0,0,0,96,216a14.11,14.11,0,0,0-1,1.48l0,.07a.59.59,0,0,1-.64.2l-2.9-.93a17.17,17.17,0,0,0-1.36,4.26v0L93,222l.08,0a.58.58,0,0,1,.32.59c0,.17,0,.34,0,.51a14.28,14.28,0,0,0,0,1.76,14.12,14.12,0,0,0,.22,1.75v.09a.62.62,0,0,1,0,.18.59.59,0,0,1-.19.3.57.57,0,0,1-.15.09l-2.82,1.16a17.15,17.15,0,0,0,1.69,4.13h0l2.82-1.16.09,0a.58.58,0,0,1,.18,0,.59.59,0,0,1,.33.13.57.57,0,0,1,.12.13l.29.42A14.3,14.3,0,0,0,97,233.44a14.13,14.13,0,0,0,1.29,1.21l.06.06a.59.59,0,0,1,.14.5.62.62,0,0,1-.06.17l-1.42,2.7a17.18,17.18,0,0,0,4,2.08h0l1.42-2.7,0-.08Zm-2.78-17.4a8.5,8.5,0,0,1,2.17-2.44,8.29,8.29,0,1,1-2.81,3.8,8.67,8.67,0,0,1,.45-1Zm.93.74a7.12,7.12,0,0,0,12.37,7,7.09,7.09,0,0,0,.93-2.79,7.17,7.17,0,0,0-.23-2.77,7.09,7.09,0,0,0-1.15-2.31,7.21,7.21,0,0,0-1.8-1.68,7.11,7.11,0,0,0-8,.17,7.28,7.28,0,0,0-1.91,2Z"/><circle class="cls-2" cx="255" cy="985.73" r="24.7"/><line class="cls-2" x1="243" y1="984.73" x2="267" y2="984.73"/><polyline class="cls-2" points="116 131.92 116 87.61 1 87.61"/><line class="cls-2" x1="383.3" y1="-1" x2="383.3" y2="126"/><polyline class="cls-2" points="602.33 -1 655 51.67 700.33 97"/><line class="cls-2" x1="710.33" y1="-1" x2="655" y2="51.67"/><polyline class="cls-2" points="534 -1 505.5 25.33 505.5 59.33"/><circle class="cls-2" cx="505.5" cy="67.33" r="8"/><line class="cls-2" x1="736.33" y1="-1" x2="763.67" y2="25.33"/><circle class="cls-2" cx="770.67" cy="32.33" r="8"/><polyline class="cls-2" points="849.75 96 849.75 29.17 882.5 -1"/><line class="cls-2" x1="1162" y1="96" x2="1162" y2="155.83"/><circle class="cls-2" cx="1162" cy="166.12" r="8"/><polyline class="cls-2" points="1162 117.5 1207 162 1207 195.5"/><circle class="cls-2" cx="1207" cy="203.5" r="8"/><line class="cls-2" x1="223.67" y1="25.33" x2="88.84" y2="25.33"/><rect class="cls-2" x="42.84" y="16.42" width="46" height="17.83"/><circle class="cls-2" cx="432.33" cy="126.91" r="8"/><line class="cls-2" x1="1007.67" y1="-1" x2="977" y2="33.33"/><circle class="cls-2" cx="973.23" cy="37.33" r="8"/><line class="cls-2" x1="1071.67" y1="-1" x2="1109.7" y2="37.33"/><circle class="cls-2" cx="1114.2" cy="43.33" r="8"/><line class="cls-2" x1="1255.79" y1="-1" x2="1255.79" y2="29.33"/><circle class="cls-2" cx="1255.79" cy="35.33" r="8"/><polyline class="cls-2" points="1403.5 916.88 1453.5 967.88 1453.5 1037.88"/><polyline class="cls-2" points="1443.5 916.88 1493.5 967.88 1493.5 1007.88"/><circle class="cls-2" cx="1453.5" cy="1045.88" r="8"/><circle class="cls-2" cx="1493.5" cy="1015.88" r="8"/><polyline class="cls-2" points="1484.5 918.26 1534.5 969.26 1534.5 1039.26"/><polyline class="cls-2" points="1524.5 918.26 1574.5 969.26 1574.5 1009.26"/><circle class="cls-2" cx="1534.5" cy="1047.26" r="8"/><circle class="cls-2" cx="1574.5" cy="1017.26" r="8"/><circle class="cls-2" cx="119.78" cy="450" r="8"/><circle class="cls-2" cx="520.83" cy="693.82" r="8"/><circle class="cls-2" cx="289.08" cy="917.07" r="8"/><circle class="cls-2" cx="491" cy="394" r="8"/><path class="cls-5" d="M811.7,835a1.44,1.44,0,0,0,1.44-1.44V821.7a1.44,1.44,0,1,0-2.89,0v11.82A1.45,1.45,0,0,0,811.7,835Z"/><path class="cls-5" d="M820.07,826.3a1.44,1.44,0,1,0-1.66,2.36,11.66,11.66,0,1,1-13.41,0,1.44,1.44,0,1,0-1.66-2.36,14.55,14.55,0,1,0,16.74,0Z"/><circle class="cls-2" cx="811.7" cy="836.06" r="24.7"/><circle class="cls-2" cx="161.5" cy="735" r="8"/><line class="cls-10" x1="1375.75" y1="97" x2="1375.75" y2="-1"/><line class="cls-11" x1="1453" y1="96" x2="1453" y2="367.18"/><polyline class="cls-2" points="1393.5 425.19 1393.5 351.19 1420.5 323.19 1453.5 323.19 1487.5 323.19 1513.5 352.19 1513.5 425.19"/><polyline class="cls-2" points="1422.5 394.19 1422.5 354.19 1453.5 323.19 1483.5 352.19 1483.5 394.19"/><circle class="cls-2" cx="1393.5" cy="434.34" r="8"/><circle class="cls-2" cx="1422.5" cy="402.18" r="8"/><circle class="cls-2" cx="1453.5" cy="375.18" r="8"/><circle class="cls-2" cx="1483.5" cy="402.18" r="8"/><circle class="cls-2" cx="1513.5" cy="434.34" r="8"/><line class="cls-11" x1="1453" y1="235" x2="1534.5" y2="235"/><rect class="cls-2" x="1534.5" y="221.5" width="46" height="27"/><line class="cls-2" x1="1698" y1="97.78" x2="1638" y2="155.2"/><circle class="cls-2" cx="1705" cy="90.76" r="8"/><line class="cls-6" x1="1375.75" y1="43.33" x2="1580.5" y2="43.33"/><rect class="cls-2" x="1579.11" y="14.61" width="57.45" height="57.45"/><circle class="cls-2" cx="1787.05" cy="154.84" r="40.5"/><polygon class="cls-5" points="1782.98 156.51 1797.83 171.29 1803.39 165.72 1788.55 150.88 1800.54 146.81 1770.71 138.39 1778.91 168.43 1782.98 156.51"/><path class="cls-5" d="M1546,800.73a1.9,1.9,0,0,0-2.56.85l-22.94,45.72a1.91,1.91,0,1,0,3.41,1.71l22.94-45.72A1.91,1.91,0,0,0,1546,800.73Z"/><path class="cls-5" d="M1508,824.16a1.9,1.9,0,0,0,0,2.89l11,9.48a1.9,1.9,0,0,0,2.49-2.89l-9.33-8,9.33-8a1.9,1.9,0,0,0-2.49-2.89Z"/><path class="cls-5" d="M1547.27,836.33a1.91,1.91,0,0,0,2.69.2l11-9.48a1.9,1.9,0,0,0,0-2.89l-11-9.48a1.9,1.9,0,1,0-2.49,2.89l9.32,8-9.32,8A1.91,1.91,0,0,0,1547.27,836.33Z"/><circle class="cls-2" cx="1534.5" cy="826" r="49.26"/><polyline class="cls-2" points="1826.29 985.73 1679.17 985.73 1612.15 918.71"/><circle class="cls-2" cx="1853.15" cy="986.73" r="24.7"/><polyline class="cls-2" points="1841.65 987.2 1849.15 996.98 1864.65 976.48"/><line class="cls-2" x1="1580.5" y1="235" x2="1675.83" y2="332.5"/><polyline class="cls-2" points="1608.93 264.08 1608.93 323.83 1628.17 342.5"/><circle class="cls-2" cx="1634.42" cy="347.31" r="8"/><circle class="cls-2" cx="1680.67" cy="338.54" r="8"/><path class="cls-5" d="M1665.25,507.69a1.23,1.23,0,0,1,.17.52A.73.73,0,0,0,1665.25,507.69Z"/><path class="cls-5" d="M1665.51,508.13a1.24,1.24,0,0,0-.17-.52c-.09-.09-.09-.17-.17-.17l-16.8-16.72a1.44,1.44,0,0,0-1-.43h-42.61a1.37,1.37,0,0,0-1.39,1.38v75.18a1.37,1.37,0,0,0,1.39,1.39h59.41a1.37,1.37,0,0,0,1.39-1.39V508.13ZM1648.71,495l12,12h-12Zm14,70.5H1606.1V493.06h39.84v15.42a1.37,1.37,0,0,0,1.39,1.39h15.42Z"/><polyline class="cls-2" points="1266.5 626.09 1566.5 626.09 1634.42 566.61"/><polyline class="cls-2" points="1399.03 566.61 1452.43 566.61 1571.34 684.5 1627.96 685.56"/><circle class="cls-2" cx="1391.03" cy="566.61" r="8"/><circle class="cls-2" cx="1634.42" cy="685.56" r="8"/><polyline class="cls-11" points="1642.42 294 1688.67 236.38 1900 235"/><line class="cls-2" x1="1745" y1="-1" x2="1745" y2="61.17"/><circle class="cls-2" cx="1745" cy="66.84" r="8"/><polyline class="cls-6" points="1819.65 235.82 1867.16 283.82 1900 319"/><line class="cls-6" x1="1728.65" y1="283.82" x2="1867.16" y2="283.82"/><line class="cls-6" x1="1900" y1="331.82" x2="1810.75" y2="331.82"/><circle class="cls-2" cx="1802.98" cy="331.82" r="8"/><circle class="cls-2" cx="1720.65" cy="283.82" r="8"/><polyline class="cls-6" points="1735.55 918.04 1686.04 865.04 1601.4 776.6"/><line class="cls-6" x1="1831" y1="871.6" x2="1692.49" y2="871.6"/><line class="cls-6" x1="1644.98" y1="823.6" x2="1748.9" y2="823.6"/><circle class="cls-2" cx="1598" cy="771.84" r="8"/><circle class="cls-2" cx="1756.67" cy="823.6" r="8"/><circle class="cls-2" cx="1839" cy="871.6" r="8"/><path class="cls-5" d="M1818.74,649.92a62.43,62.43,0,0,0-19.83-42.1l-1-1-1,1a62.94,62.94,0,0,0-19.72,42,29.78,29.78,0,0,0-6.73,33.27l1.37,3.2,1.37-3.2a27,27,0,0,1,7.18-9.74,60.78,60.78,0,0,0,4.81,10.64l.44.75h24.64l.44-.75a62.54,62.54,0,0,0,4.83-10.64,27,27,0,0,1,7.16,9.72l1.37,3.2,1.37-3.2a29.69,29.69,0,0,0-6.65-33.14ZM1797.89,611a61.73,61.73,0,0,1,10.6,13.93h-21.11A60.8,60.8,0,0,1,1797.89,611Zm-18.55,59.28a30,30,0,0,0-7.33,8.44,26.91,26.91,0,0,1,5-24.35,62.92,62.92,0,0,0,1,9.63l.16.93c.13.66.26,1.32.4,2,.22,1,.47,2,.73,2.92C1779.26,670,1779.3,670.13,1779.33,670.28Zm29.14,11.48H1787.3a58.65,58.65,0,0,1-1.46-53.85H1810a58.38,58.38,0,0,1,5.72,22.24l0,.48c0,.91.07,1.81.07,2.72,0,1.35-.05,2.72-.15,4.08,0,.31-.05.62-.09.93-.09,1.08-.22,2.18-.37,3.25,0,.27-.09.55-.13.82q-.28,1.75-.66,3.51c0,.16-.07.33-.11.48-.31,1.33-.66,2.65-1.06,4,0,0,0,0,0,.05l-.29,1h0A63.34,63.34,0,0,1,1808.47,681.76Zm15.3-3a30.11,30.11,0,0,0-7.35-8.46s0,0,0,0c.35-1.19.64-2.38.9-3.56l.11-.46c.22-1,.4-2.08.58-3.13.05-.33.11-.66.16-1,.13-.86.22-1.74.31-2.6.05-.51.11-1,.15-1.54q.08-1.1.11-2.19c0-.46.05-.91.07-1.35a26.91,26.91,0,0,1,4.94,24.33Z"/><path class="cls-5" d="M1797.89,644.36a9,9,0,1,0,9,9A9,9,0,0,0,1797.89,644.36Zm0,15a6,6,0,1,1,6-6A6,6,0,0,1,1797.89,659.33Z"/><rect class="cls-5" x="1796.41" y="687.74" width="3" height="7.48"/><rect class="cls-5" x="1806.86" y="692.23" width="3" height="7.48"/><rect class="cls-5" x="1785.93" y="692.23" width="3" height="7.48"/><polygon class="cls-2" points="1852.4 720.34 1743.4 720.34 1743.4 584.34 1852.4 584.34 1852.4 652.34 1852.4 720.34"/><line class="cls-2" x1="1797.89" y1="720.34" x2="1797.89" y2="871.6"/><polyline class="cls-2" points="1796.4 584.34 1796.4 434.34 1589 434.34"/><circle class="cls-2" cx="1580.5" cy="434.34" r="8"/><line class="cls-2" x1="1637.56" y1="434.34" x2="1666.82" y2="404.92"/><circle class="cls-2" cx="1670.5" cy="398.76" r="8"/><line class="cls-2" x1="1852.4" y1="652.34" x2="1900" y2="652.34"/><polyline class="cls-2" points="1794.98 513.31 1852.4 467.04 1900 467.04"/><circle class="cls-2" cx="1864.65" cy="825.29" r="8"/><line class="cls-2" x1="1900" y1="825.29" x2="1872.65" y2="825.29"/><circle class="cls-2" cx="1862.53" cy="35.33" r="8"/><line class="cls-2" x1="1897.88" y1="35.33" x2="1870.53" y2="35.33"/></g></svg>